<svg xmlns="http://www.w3.org/2000/svg" version="1.1" xmlns:xlink="http://www.w3.org/1999/xlink" xmlns:svgjs="http://svgjs.dev/svgjs" width="1500" height="178" viewBox="0 0 1500 178"><g transform="matrix(1,0,0,1,-0.9090909090909918,-0.8391078088978077)"><svg viewBox="0 0 396 47" data-background-color="#ffffff" preserveAspectRatio="xMidYMid meet" height="178" width="1500" xmlns="http://www.w3.org/2000/svg" xmlns:xlink="http://www.w3.org/1999/xlink"><g id="tight-bounds" transform="matrix(1,0,0,1,0.2400000000000091,0.22156217425953173)"><svg viewBox="0 0 395.52 46.55687565148092" height="46.55687565148092" width="395.52"><g><svg viewBox="0 0 676.7047936852734 79.65529159679998" height="46.55687565148092" width="395.52"><g><rect width="5.8941274843721585" height="65.685632448673" x="410.94965310045063" y="6.98482957406349" fill="#0012fb" opacity="1" stroke-width="0" stroke="transparent" fill-opacity="1" class="rect-yte-0" data-fill-palette-color="primary" rx="1%" id="yte-0" data-palette-color="#0012fb"></rect></g><g transform="matrix(1,0,0,1,0,7.1482266697069505)"><svg viewBox="0 0 395.52 65.35883825738608" height="65.35883825738608" width="395.52"><g id="textblocktransform"><svg viewBox="0 0 395.52 65.35883825738608" height="65.35883825738608" width="395.52" id="textblock"><g><svg viewBox="0 0 395.52 65.35883825738608" height="65.35883825738608" width="395.52"><g transform="matrix(1,0,0,1,0,0)"><svg width="395.52" viewBox="1.56 -31.74 195 32.23" height="65.35883825738608" data-palette-color="#0012fb"><g class="wordmark-text-0" data-fill-palette-color="primary" id="text-0"><path d="M1.56 0L23.97 0 24.22-10.11 23.05-10.11 21.97-6.3Q20.95-2.59 18.8-1.66L18.8-1.66Q17.87-1.27 16.75-1.27L16.75-1.27 10.69-1.27 10.69-28.03 14.84-28.03 14.84-29.3 1.56-29.3 1.56-28.03 5.47-28.03 5.47-1.27 1.56-1.27 1.56 0ZM26.07 0L39.11 0Q39.11-1.07 38.33-1.22L38.33-1.22Q38.08-1.27 37.84-1.27L37.84-1.27 35.2-1.27 35.2-28.03 39.11-28.03 39.11-29.3 26.07-29.3 26.07-28.03 29.98-28.03 29.98-1.27 26.07-1.27 26.07 0ZM62.89-29.3L62.89-28.03 66.94-28.03 66.94-7.32 48.92-29.3 41.55-29.3 41.55-28.03 45.45-28.03 45.45-1.27 41.55-1.27 41.55 0 51.61 0Q51.22-1.17 50.29-1.27L50.29-1.27 47.46-1.27 47.46-22.95 66.45 0.24 68.94-0.24 68.94-28.03 72.85-28.03 72.85-29.3 62.89-29.3ZM74.8 0L87.83 0Q87.83-1.07 87.05-1.22L87.05-1.22Q86.81-1.27 86.56-1.27L86.56-1.27 83.93-1.27 83.93-12.79 86.13-14.79 96.77 0 104.58 0Q104.58-1.07 103.8-1.22L103.8-1.22Q103.56-1.27 103.31-1.27L103.31-1.27 102.34-1.27 89.93-18.31 98.09-25.88Q100.14-27.69 100.97-27.93L100.97-27.93Q101.41-28.03 101.85-28.03L101.85-28.03Q102.97-28.03 103.07-28.81L103.07-28.81Q103.12-29.05 103.12-29.3L103.12-29.3 94.23-29.3 94.23-28.03 98.14-28.03 83.93-15.04 83.93-28.03 87.83-28.03 87.83-29.3 74.8-29.3 74.8-28.03 78.7-28.03 78.7-1.27 74.8-1.27 74.8 0ZM106.34-10.3L106.34-10.3Q106.34-3.91 111.07-1.07L111.07-1.07Q113.71 0.49 117.08 0.49L117.08 0.49Q122.16 0.49 124.79-2.83L124.79-2.83Q125.53-3.76 125.97-4.83L125.97-4.83 124.7-5.22Q123.09-1.71 119.33-1.03L119.33-1.03Q118.54-0.88 117.76-0.88L117.76-0.88Q113.61-0.88 112.15-5.57L112.15-5.57Q111.51-7.67 111.51-10.5L111.51-10.5Q111.56-20.17 117.18-20.21L117.18-20.21Q119.62-20.21 120.16-18.12L120.16-18.12Q120.25-17.77 120.35-16.94L120.35-16.94Q120.69-14.84 121.47-14.31L121.47-14.31Q122.06-13.96 122.89-13.92L122.89-13.92Q124.99-13.87 125.38-15.58L125.38-15.58Q125.48-15.92 125.48-16.21L125.48-16.21Q125.48-18.51 122.6-20.12L122.6-20.12Q120.2-21.44 117.08-21.44L117.08-21.44Q111.17-21.44 108.24-17.04L108.24-17.04Q106.34-14.21 106.34-10.3ZM145.25 0.49L145.25 0.49Q148.67 0.49 149.45-2.59L149.45-2.59Q149.69-3.47 149.74-4.59L149.74-4.59 148.47-4.64Q148.13-1.17 146.62-1.12L146.62-1.12Q145.45-1.22 145.4-3.61L145.4-3.61 145.4-13.87Q145.3-21.39 137.15-21.44L137.15-21.44Q131.24-21.44 129.43-18.8L129.43-18.8Q128.89-17.97 128.89-17.14L128.89-17.14Q128.89-15.58 130.36-15.14L130.36-15.14Q130.75-15.04 131.14-15.04L131.14-15.04Q132.65-15.04 133.24-16.65L133.24-16.65Q133.34-16.89 133.48-17.38L133.48-17.38Q134.12-19.34 135.05-19.87L135.05-19.87Q135.73-20.21 136.71-20.21L136.71-20.21Q140.66-20.12 140.71-15.09L140.71-15.09 140.71-11.96Q128.99-11.82 127.77-6.64L127.77-6.64Q127.62-5.96 127.62-5.22L127.62-5.22Q127.62-1.32 130.99 0L130.99 0Q132.26 0.49 133.78 0.49L133.78 0.49Q137.49 0.49 139.73-2.05L139.73-2.05Q140.47-2.93 140.86-3.91L140.86-3.91Q141.59 0.44 145.25 0.49ZM135.78-1.51L135.78-1.51Q133.09-1.51 132.6-4.69L132.6-4.69Q132.51-5.27 132.51-5.96L132.51-5.96Q132.51-9.28 136.02-10.16L136.02-10.16Q137.83-10.6 140.71-10.64L140.71-10.64 140.71-6.4Q139.88-2.98 137.29-1.86L137.29-1.86Q136.51-1.51 135.78-1.51ZM159.36-0.83L159.36-0.83Q162.68-0.83 163.61-2.93L163.61-2.93Q163.9-3.56 163.9-4.25L163.9-4.25Q163.9-6.45 160.82-8.01L160.82-8.01Q160.19-8.35 158.73-8.98L158.73-8.98Q154.87-10.64 153.6-12.06L153.6-12.06Q152.23-13.62 152.23-15.72L152.23-15.72Q152.23-19.38 156.24-20.8L156.24-20.8Q158.04-21.44 160.19-21.44L160.19-21.44Q163.71-21.44 165.95-20.07L165.95-20.07Q165.95-21.48 166.68-21.68L166.68-21.68Q166.93-21.73 167.22-21.73L167.22-21.73 167.22-15.63 165.85-15.63Q165.66-20.12 160.92-20.17L160.92-20.17Q157.5-20.17 156.67-18.07L156.67-18.07Q156.48-17.53 156.48-16.94L156.48-16.94Q156.48-14.84 159.46-13.33L159.46-13.33Q160.09-13.04 161.51-12.45L161.51-12.45Q165.41-10.79 166.68-9.38L166.68-9.38Q168.15-7.71 168.15-5.52L168.15-5.52Q168.15-1.51 163.95-0.1L163.95-0.1Q162.24 0.49 160.14 0.49L160.14 0.49Q156.28 0.44 153.55-1.17L153.55-1.17Q153.55 0.1 152.91 0.29L152.91 0.29Q152.62 0.34 152.23 0.34L152.23 0.34 152.23-7.08 153.74-7.08Q153.84-0.88 159.36-0.83ZM181.23-1.22L181.23-1.22 179.28-1.22 179.28-12.26Q179.28-16.7 182.21-18.46L182.21-18.46Q183.28-19.09 184.41-19.09L184.41-19.09Q187.29-19.09 188.21-16.16L188.21-16.16Q188.51-15.09 188.51-13.87L188.51-13.87 188.51-4Q188.51-1.9 187.63-1.46L187.63-1.46Q187.04-1.22 185.72-1.22L185.72-1.22 185.72 0 196.56 0Q196.56-1.07 195.93-1.17L195.93-1.17Q195.69-1.22 195.34-1.22L195.34-1.22 193.24-1.22 193.24-13.53Q193.24-19.14 189.44-20.85L189.44-20.85Q188.17-21.44 186.7-21.44L186.7-21.44Q182.89-21.44 180.5-18.65L180.5-18.65Q179.72-17.68 179.28-16.6L179.28-16.6 179.28-31.74 171.22-31.74 171.22-30.52 174.59-30.52 174.59-4Q174.59-1.81 173.13-1.42L173.13-1.42Q172.44-1.22 171.22-1.22L171.22-1.22 171.22 0 182.4 0Q182.4-1.03 181.77-1.17L181.77-1.17Q181.53-1.22 181.23-1.22Z" fill="#0012fb" data-fill-palette-color="primary"></path></g></svg></g></svg></g></svg></g></svg></g><g transform="matrix(1,0,0,1,432.27343368527346,0)"><svg viewBox="0 0 244.43135999999996 79.65529159679998" height="79.65529159679998" width="244.43135999999996"><g><svg xmlns="http://www.w3.org/2000/svg" xmlns:xlink="http://www.w3.org/1999/xlink" version="1.1" x="0" y="0" viewBox="0 0 100 32.588" enable-background="new 0 0 100 32.587" xml:space="preserve" id="icon-0" width="244.43135999999996" height="79.65529159679998" class="icon-icon-0" data-fill-palette-color="accent"><path d="M38.935 16.293A5.68 5.68 0 0 0 44.609 21.97H55.363A5.68 5.68 0 0 0 61.034 16.293 5.68 5.68 0 0 0 55.363 10.617H44.609A5.683 5.683 0 0 0 38.935 16.293" fill="#83b6b9" data-fill-palette-color="accent"></path><path d="M85.704 0H66.88C61.922 0 57.547 2.542 54.984 6.391H57.024C60.263 6.391 63.133 7.96 64.942 10.373A4.3 4.3 0 0 1 66.88 9.9H85.704C88.129 9.9 90.104 11.875 90.104 14.305V18.283A4.41 4.41 0 0 1 85.704 22.686H66.88A4.3 4.3 0 0 1 64.942 22.216C63.133 24.627 60.263 26.198 57.024 26.198H54.984C57.546 30.044 61.922 32.586 66.88 32.586H85.704C93.587 32.586 100 26.17 100 18.282V14.304C100 6.418 93.587 0 85.704 0" fill="#83b6b9" data-fill-palette-color="accent"></path><path d="M35.04 22.226A4.34 4.34 0 0 1 33.119 22.686H14.298A4.41 4.41 0 0 1 9.895 18.283V14.305A4.41 4.41 0 0 1 14.298 9.9H33.119C33.811 9.9 34.457 10.077 35.04 10.36 36.848 7.952 39.716 6.39 42.948 6.39H45.018C42.453 2.542 38.077 0 33.119 0H14.298C6.416 0 0 6.418 0 14.306V18.284C0 26.172 6.416 32.588 14.298 32.588H33.119C38.077 32.588 42.452 30.046 45.017 26.2H42.947C39.716 26.199 36.848 24.634 35.04 22.226" fill="#83b6b9" data-fill-palette-color="accent"></path></svg></g></svg></g></svg></g><defs></defs></svg><rect width="395.52" height="46.55687565148092" fill="none" stroke="none" visibility="hidden"></rect></g></svg></g></svg>